<svg width="40" height="40" viewBox="0 0 40 40" fill="none" xmlns="http://www.w3.org/2000/svg">
<circle cx="13" cy="13" r="13" fill="#F3BA2F"/>
<path d="M9.50426 11.5637L13 8.068L16.4974 11.5653L18.5314 9.53126L13 4L7.4704 9.5296L9.50433 11.5636L9.50426 11.5637ZM4 13L6.03407 10.9656L8.068 12.9996L6.03393 15.0336L4 13ZM9.50426 14.4365L13 17.932L16.4973 14.4348L18.5324 16.4677L18.5314 16.4688L13 22L7.4704 16.4704L7.46752 16.4675L9.50447 14.4363L9.50426 14.4365ZM17.932 13.0009L19.9661 10.9668L22 13.0007L19.966 15.0348L17.932 13.0009Z" fill="white"/>
<path d="M15.0629 12.9989H15.0638L13 10.9349L11.4745 12.46L11.2993 12.6353L10.9378 12.9968L10.935 12.9996L10.9378 13.0026L13 15.065L15.064 13.001L15.065 12.9999L15.0631 12.9989" fill="white"/>
<circle cx="27" cy="27" r="12.5" fill="#F0B90B" stroke="white"/>
<path fill-rule="evenodd" clip-rule="evenodd" d="M21.9924 24.0119L27.0048 19L29.0031 20.9982L23.992 26.0101L21.9937 24.0119H21.9924ZM21.9962 30.0008L30.0067 21.9916L32.005 23.9897L23.992 31.9989L21.9962 30.0008ZM33.0023 24.9926L24.9918 33.0018L26.9902 35L35 26.9902L33.0017 24.992L33.0023 24.9926ZM19 27.0041L20.9977 25.0059L22.996 27.0041L20.9977 29.0023L19 27.0041Z" fill="#FFFDFA"/>
</svg>
